<svg xmlns="http://www.w3.org/2000/svg" width="80" height="80" viewBox="0 0 80 80">
    <path fill="#EEE" fill-rule="evenodd" d="M40 80C17.909 80 0 62.091 0 40S17.909 0 40 0s40 17.909 40 40-17.909 40-40 40zm-9.797-64.797c-8.285 0-15 6.715-15 15v20.1c0 8.285 6.715 15 15 15h20.1c8.285 0 15-6.715 15-15v-20.1c0-8.285-6.715-15-15-15h-20.1zm2.05 5.05H48.76c6.628 0 12 5.373 12 12V48.76c0 6.628-5.372 12-12 12H32.253c-6.627 0-12-5.372-12-12V32.253c0-6.627 5.373-12 12-12zM53.918 31.38a3.285 3.285 0 1 0 0-6.57 3.285 3.285 0 0 0 0 6.57zM40.506 53.165c6.991 0 12.659-5.668 12.659-12.659 0-6.99-5.668-12.658-12.659-12.658-6.99 0-12.658 5.667-12.658 12.658s5.667 12.659 12.658 12.659zm0-4.545a8.114 8.114 0 1 1 0-16.228 8.114 8.114 0 0 1 0 16.228z"/>
</svg>
