<svg xmlns="http://www.w3.org/2000/svg" width="72" height="78" viewBox="0 0 72 78">
    <g fill="none" fill-rule="nonzero">
        <path fill="#444" d="M70.535 26.988h-5.196c3.938-2.581 6.536-6.995 6.536-12.011 0-7.96-6.536-14.415-14.596-14.415a14.62 14.62 0 0 0-12.16 6.453A14.624 14.624 0 0 0 32.96.563c-8.058 0-14.593 6.453-14.593 14.414 0 5.016 2.597 9.43 6.533 12.011h-5.197a1.33 1.33 0 0 0-1.336 1.324v2.96L1.451 26.989c-.73 0-1.326.593-1.326 1.324v23.781c0 .73.596 1.321 1.326 1.321l16.915-4.284v2.963c0 .73.597 1.321 1.337 1.321h21.434l-9.393 21.621h-4.995v2.403h8.141l9.014-21.622v19.22h-3.648v2.401h10.945v-2.402h-3.65V55.816l9.213 21.621h7.816v-2.402h-4.865l-9.393-21.62h20.213c.734 0 1.34-.592 1.34-1.322V28.312c0-.73-.606-1.324-1.34-1.324m-67.978 2.76l2.432.615v19.674l-2.432.615V29.748m64.454 2.045v14.414H47.553V31.793h19.458M57.28 10.172c2.688 0 4.867 2.151 4.867 4.805 0 2.653-2.179 4.804-4.867 4.804s-4.862-2.151-4.862-4.804c0-2.654 2.175-4.805 4.862-4.805m-12.16 12.766a14.584 14.584 0 0 0 4.1 4.05h-8.2a14.56 14.56 0 0 0 4.1-4.05M32.958 10.172c2.687 0 4.867 2.151 4.867 4.805 0 2.653-2.18 4.804-4.867 4.804-2.684 0-4.861-2.151-4.861-4.804 0-2.654 2.177-4.805 4.861-4.805m-9.726 22.823h19.457v4.804H23.231v-4.804m0 7.207h19.457v4.805H23.231v-4.805m44.862 10.81H22.148c-.745 0-1.35-.537-1.35-1.202 0-.663.605-1.202 1.35-1.202h45.943c.745 0 1.35.54 1.35 1.202.002.665-.604 1.202-1.348 1.202"/>
        <path fill="#EEE" d="M48.769 32.995h17.026v12.012H48.77z"/>
        <path d="M-5-2h82v82H-5z"/>
    </g>
</svg>
