<svg xmlns="http://www.w3.org/2000/svg" width="78" height="78" viewBox="0 0 78 78">
    <g fill="none" fill-rule="nonzero">
        <path fill="#EEE" d="M45.412 38.332l-8.984-4.192c-.784-.364-1.428.044-1.428.912v7.896c0 .868.644 1.276 1.428.912l8.98-4.192c.788-.368.788-.968.004-1.336zM39 .6C17.792.6.6 17.792.6 39S17.792 77.4 39 77.4 77.4 60.208 77.4 39 60.208.6 39 .6zm0 54c-19.656 0-20-1.772-20-15.6s.344-15.6 20-15.6S59 25.172 59 39s-.344 15.6-20 15.6z"/>
        <path d="M-1-1h80v80H-1z"/>
    </g>
</svg>
