<svg xmlns="http://www.w3.org/2000/svg" width="78" height="78" viewBox="0 0 78 78">
    <g fill="none" fill-rule="nonzero">
        <path fill="#EEE" d="M77.75 39C77.75 17.594 60.406.25 39 .25S.25 17.594.25 39c0 19.34 14.17 35.372 32.695 38.281v-27.08h-9.843V39h9.843v-8.538c0-9.71 5.782-15.075 14.636-15.075 4.24 0 8.675.757 8.675.757v9.531H51.37c-4.813 0-6.314 2.988-6.314 6.052V39h10.747l-1.72 11.202h-9.027v27.08C63.58 74.371 77.75 58.34 77.75 39z"/>
        <path d="M-1-1h80v80H-1z"/>
    </g>
</svg>
