<svg xmlns="http://www.w3.org/2000/svg" width="55" height="71" viewBox="0 0 55 71">
    <g fill="none" fill-rule="nonzero">
        <path fill="#444" d="M.313.156v70.688h54.374v-52.76l-.76-.851L37.613.92 36.76.16H.313V.156zM5.75 5.594h27.188v16.312H49.25v43.5H5.75V5.594zm32.625 3.91l6.968 6.965h-6.968V9.5v.002zM27.5 27.343l-5.438 32.625H27.5l5.438-32.625H27.5zM17.223 33.8l-6.797 8.156-1.449 1.7 1.447 1.698 6.796 8.157 4.242-3.399-5.345-6.457 5.35-6.457-4.241-3.398h-.003zm20.554 0l-4.241 3.398 5.347 6.457-5.356 6.457 4.25 3.399 6.797-8.157 1.446-1.699-1.44-1.699-6.798-8.156h-.005z"/>
        <path d="M-16-8h87v87h-87z"/>
    </g>
</svg>
