<svg xmlns="http://www.w3.org/2000/svg" width="78" height="78" viewBox="0 0 78 78">
    <g fill="none" fill-rule="nonzero">
        <path fill="#EEE" d="M61.027 28.687c1.853-1.544 4.014-3.385 4.987-5.43-1.583.787-3.455 1.3-5.554 1.586 1.922-1.409 3.496-3.157 4.307-5.67-1.98 1.05-4.033 2.007-6.57 2.497-5.982-7.256-20.309-1.397-17.784 9.398-10.062-.617-16.195-5.172-21.294-10.764-2.906 4.728-.378 11.864 3.06 13.817-1.775-.104-3.122-.656-4.415-1.242.178 5.943 3.455 8.773 8.04 10.313-1.451.318-2.95.358-4.416.115 1.42 4.157 4.424 6.743 9.51 7.241-3.446 2.949-9.872 5.021-15.06 4.192 4.423 2.817 9.514 5.071 16.531 4.755 17.013-.768 28.411-12.98 28.658-30.808zM39 .404C60.317.404 77.596 17.684 77.596 39c0 21.317-17.28 38.596-38.596 38.596C17.683 77.596.404 60.316.404 39 .404 17.683 17.684.404 39 .404z"/>
        <path d="M-1-1h80v80H-1z"/>
    </g>
</svg>
