<svg xmlns="http://www.w3.org/2000/svg" width="77" height="77" viewBox="0 0 77 77">
    <g fill="none" fill-rule="evenodd">
        <path fill="#444" d="M69.206 61.75c-1.32 0-2.549.353-3.634.93L48.894 45.942a12.687 12.687 0 0 0 2.16-5.046h5.798a7.625 7.625 0 0 0 7.236 5.077c4.243 0 7.677-3.337 7.677-7.462s-3.434-7.461-7.677-7.461a7.625 7.625 0 0 0-7.298 5.266h-5.726a12.62 12.62 0 0 0-1.955-4.882l16.837-16.899a7.782 7.782 0 0 0 3.26.732c4.242 0 7.676-3.337 7.676-7.462 0-4.124-3.434-7.461-7.676-7.461-4.238 0-7.666 3.337-7.666 7.461 0 1.336.383 2.575 1.018 3.66l-16.663 16.73a12.702 12.702 0 0 0-5.097-2.145v-6.044c3.106-.952 5.378-3.741 5.378-7.083 0-4.125-3.433-7.462-7.676-7.462-4.237 0-7.666 3.337-7.666 7.462 0 3.352 2.277 6.157 5.414 7.098v6.024a12.682 12.682 0 0 0-5.071 2.088l-16.684-16.74c.604-1.07.978-2.278.978-3.583 0-4.124-3.434-7.461-7.677-7.461C3.557.348.128 3.685.128 7.809c0 4.125 3.429 7.462 7.666 7.462a7.811 7.811 0 0 0 3.337-.768l16.811 16.873a12.6 12.6 0 0 0-2.01 4.949H20.21a7.625 7.625 0 0 0-7.303-5.266c-4.238 0-7.667 3.337-7.667 7.461 0 4.125 3.43 7.462 7.667 7.462 3.377 0 6.218-2.129 7.236-5.077h5.798a12.572 12.572 0 0 0 2.221 5.118L11.51 62.737a7.769 7.769 0 0 0-3.721-.967c-4.237 0-7.666 3.337-7.666 7.461 0 4.125 3.429 7.462 7.666 7.462 4.243 0 7.676-3.337 7.676-7.462a7.229 7.229 0 0 0-.767-3.203l16.76-16.832a12.546 12.546 0 0 0 4.785 1.888v5.932c-3.132.941-5.414 3.74-5.414 7.098 0 4.125 3.428 7.461 7.666 7.461 4.242 0 7.676-3.336 7.676-7.461 0-3.337-2.267-6.131-5.378-7.083v-5.952a12.66 12.66 0 0 0 4.82-1.93l16.73 16.792a7.206 7.206 0 0 0-.808 3.29c0 4.125 3.428 7.462 7.666 7.462 4.242 0 7.676-3.337 7.676-7.462 0-4.124-3.429-7.482-7.671-7.482z"/>
        <path fill-rule="nonzero" d="M-5-5h87v87H-5z"/>
    </g>
</svg>
